<svg xmlns="http://www.w3.org/2000/svg" width="115" height="115" fill="none" viewBox="0 0 115 115">
  <circle cx="57.5" cy="57.5" r="57.5" fill="#8CFFAE"/>
  <path fill="#2C5AA0" d="M30.863 75.15c1.407-2.11 2.566-4.077 3.477-5.898.952-1.822 1.863-3.933 2.732-6.334 2.94 1.697 6.354 3.022 10.245 3.974 3.892.952 7.514 1.428 10.867 1.428 3.435 0 5.857-.29 7.264-.869 1.408-.62 2.112-1.283 2.112-1.987 0-2.525-3.85-3.788-11.55-3.788-8.444 0-14.57-.869-18.38-2.607-3.808-1.78-5.712-4.637-5.712-8.57 0-5.588 2.319-9.706 6.955-12.356 4.636-2.649 10.659-3.974 18.069-3.974 4.305 0 8.713.56 13.225 1.677 4.554 1.076 8.652 2.566 12.295 4.47-1.2 2.733-2.463 6.065-3.788 9.997-.248.828-.455 1.45-.62 1.863-2.112-1.697-5.3-3.104-9.563-4.222-4.264-1.16-8.03-1.739-11.3-1.739-3.934 0-6.583.27-7.949.808-1.366.496-2.049 1.241-2.049 2.235 0 .993.932 1.8 2.794 2.422 1.904.58 4.637.869 8.197.869 8.775 0 15.15 1.014 19.124 3.042 3.974 1.987 5.961 5.05 5.961 9.19 0 5.795-2.111 9.976-6.334 12.543-4.222 2.525-10.617 3.788-19.186 3.788-4.595 0-9.273-.497-14.033-1.49-4.76-1.036-9.045-2.526-12.853-4.471Z"/>
  <path fill="#FF6A52" d="M72.97 85.052 61.375 96.526a1.961 1.961 0 0 1-2.777-.015L45.073 82.844a7.385 7.385 0 0 1-2.083-4.317l-1.318-11.005a2.604 2.604 0 0 1 2.502-2.477l10.99 1.434a7.385 7.385 0 0 1 4.294 2.128l13.527 13.665a1.964 1.964 0 0 1-.015 2.78Z"/>
  <path fill="#fff" d="m63.383 79.014 1.806 1.825a.98.98 0 0 1-.007 1.386l-1.075 1.067a.98.98 0 0 0-.008 1.386l1.067 1.079a.98.98 0 0 1-.007 1.385l-1.828 1.807a.98.98 0 0 1-1.386-.008l-1.067-1.078a.98.98 0 0 0-1.386-.007l-1.079 1.067a.98.98 0 0 1-1.386-.008l-1.806-1.825a.98.98 0 0 1 .008-1.386l1.078-1.067a.98.98 0 0 0 .007-1.386l-1.067-1.078a.98.98 0 0 1 .008-1.386l1.825-1.806a.98.98 0 0 1 1.386.007l1.07 1.079a.98.98 0 0 0 1.386.007L62 79.007a.98.98 0 0 1 1.383.007Z"/>
  <path fill="#2C5AA0" d="M48.53 69.002a2.072 2.072 0 1 0-2.947 2.915 2.072 2.072 0 0 0 2.946-2.915Z"/>
</svg>
